<svg width="72" height="134" viewBox="0 0 72 134" fill="none" xmlns="http://www.w3.org/2000/svg">
<path id="BZ" d="M46.3217 1.64244L43.6936 7.47202L46.3217 8.22256L48.7044 7.68137L54.4682 7.89124L56.6758 14.2796L56.0976 19.6383L50.6666 33.7414L49.9833 38.5765L47.5129 45.8203L50.8593 50.5851L47.7233 56.9037L46.6545 60.9882L46.4094 67.1321L47.9861 78.7918L45.4457 95.5833L40.9607 102.914L38.1752 105.69L33.1994 112.968L26.6646 115.132L17.607 126.845L16.0129 129.917L16.8887 133.233L14.769 133.268L6.09667 132.727L0.227763 133.338L0 133.041L0.472902 120.456L1.22623 100.96L1.76944 86.629L2.29501 72.5957L2.69787 62.0706L3.24108 47.7225L3.71398 35.3298L3.66158 30.8788L5.08056 27.353L9.16265 25.8866L14.4536 28.959L16.6609 30.2332L18.6407 29.4997L21.1635 27.6321L24.2471 22.2037L31.9905 10.9807L35.0915 3.00395L38.1225 1.41552L42.5024 1.13586L46.3217 1.64244ZM63.2807 29.692L60.9504 30.6343L62.8776 27.6849L63.158 25.7997L65.8561 17.9098L67.783 17.9449L68.2912 18.6433L63.2807 29.692ZM68.0985 55.3504L64.3142 62.4893L64.069 60.447L65.6457 55.1581L67.783 53.3081L69.1146 51.3532L69.4124 49.0494L71.2695 50.1664L70.7966 52.4356L68.0985 55.3504Z" fill="#1C110A" fill-opacity="0.91" stroke="white" stroke-width="0.5"/>
</svg>
