<svg width="181" height="118" viewBox="0 0 181 118" fill="none" xmlns="http://www.w3.org/2000/svg">
<path id="DO" d="M11.9487 96.8618L12.1594 88.4141L13.473 84.9752L12.2642 81.3621L6.81551 77.522L3.48675 72.5649L0.526367 68.1842L1.19201 67.5557L7.11332 67.3634L9.19847 65.7403L13.1752 61.2547L13.9639 57.6415L13.6484 54.9009L11.0553 51.6367L10.0395 48.1807L13.2276 45.1786L17.415 40.7803L17.993 39.0869L17.9053 37.4116L13.0175 32.7859L12.685 30.7788L14.9621 25.7519L14.7343 22.4179L12.4743 11.9972L11.4061 10.4439L13.5784 9.57142L15.015 6.46433L16.9071 3.6891L19.4296 2.20507L22.3029 1.26277L27.9969 1.35012L35.8804 3.75888L38.1233 3.72372L45.6919 1.52484L51.9634 0.302887L57.8852 1.69903L60.2853 3.58416L65.156 6.56873L67.6085 7.45937L75.3171 7.40663L77.437 7.70333L83.9021 12.6258L89.3502 14.5983L92.5212 14.6856L98.1977 12.7829L101.019 12.8351L104.242 17.0768L104.873 23.0987L107.571 28.5794L111.705 32.0876L132.081 30.6216L136.618 33.5018L135.077 35.8754L132.186 37.1496L122.497 36.5908L118.275 36.8704L117.417 39.244L117.399 41.4435L123.058 41.9671L128.612 43.0665L134.288 44.8472L140.034 46.0516L146.517 46.8368L152.912 48.1109L163.564 52.4224L175.319 62.197L178.472 64.431L180.558 67.4859L179.559 71.2732L175.354 77.4522L172.971 79.4247L169.502 80.6467L167.12 83.1598L164.825 87.4713L163.423 87.8378L161.776 87.6636L158.956 85.2197L156.941 81.467L151.247 77.9412L144.502 78.3951L134.551 76.3176L128.541 77.3127L122.515 77.5572L116.366 76.4923L110.164 76.1259L103.979 77.4522L97.9875 79.7038L95.78 81.1527L91.9256 84.6614L89.8758 85.9702L75.2824 87.7334L71.0949 85.1499L67.1882 81.6241L61.5818 81.1527L53.4353 83.8757L48.3545 84.8708L46.2875 86.0224L45.6742 87.3669L45.6566 92.2888L44.5178 95.2734L36.5814 106.55L32.1138 114.509L30.2746 116.952L28.137 117.493L24.2303 112.92L21.7425 111.28L18.6587 110.442L17.345 108.015L17.3974 104.559L16.5917 101.208L14.6819 98.5728L11.9487 96.8618Z" fill="#1C110A" fill-opacity="0.91" stroke="white" stroke-width="0.5"/>
</svg>
