<svg width="25" height="25" viewBox="0 0 25 25" fill="none" xmlns="http://www.w3.org/2000/svg">
<g id="Component 5">
<path id="Vector" d="M5.20833 6.34377V18.8438L3.86458 17.4896C3.66843 17.2935 3.4024 17.1833 3.125 17.1833C2.8476 17.1833 2.58157 17.2935 2.38542 17.4896C2.18927 17.6858 2.07907 17.9518 2.07907 18.2292C2.07907 18.5066 2.18927 18.7726 2.38542 18.9688L5.51042 22.0938C5.60725 22.1914 5.72246 22.2689 5.8494 22.3218C5.97634 22.3747 6.11249 22.4019 6.25 22.4019C6.38751 22.4019 6.52366 22.3747 6.6506 22.3218C6.77754 22.2689 6.89275 22.1914 6.98958 22.0938L10.1146 18.9688C10.2122 18.8719 10.2897 18.7567 10.3426 18.6298C10.3955 18.5028 10.4227 18.3667 10.4227 18.2292C10.4227 18.0917 10.3955 17.9555 10.3426 17.8286C10.2897 17.7016 10.2122 17.5864 10.1146 17.4896C10.0177 17.392 9.90254 17.3145 9.7756 17.2616C9.64866 17.2087 9.51251 17.1815 9.375 17.1815C9.23749 17.1815 9.10134 17.2087 8.9744 17.2616C8.84746 17.3145 8.73225 17.392 8.63542 17.4896L7.29167 18.8438V6.34377C7.28752 6.13036 7.32546 5.91823 7.40332 5.71948C7.48118 5.52074 7.59743 5.33929 7.74543 5.18548C7.89343 5.03168 8.07029 4.90854 8.26589 4.82309C8.46149 4.73765 8.67201 4.69158 8.88542 4.68752H11.4583C11.7346 4.68752 11.9996 4.57777 12.1949 4.38242C12.3903 4.18707 12.5 3.92212 12.5 3.64585C12.5 3.36958 12.3903 3.10463 12.1949 2.90928C11.9996 2.71393 11.7346 2.60418 11.4583 2.60418H8.88542C8.39843 2.60827 7.91701 2.70824 7.46866 2.89839C7.0203 3.08853 6.6138 3.36513 6.27234 3.71239C5.93089 4.05965 5.66118 4.47076 5.47862 4.92225C5.29606 5.37375 5.20421 5.85678 5.20833 6.34377ZM14.8854 6.03127C14.6893 6.22742 14.5791 6.49345 14.5791 6.77085C14.5791 7.04825 14.6893 7.31429 14.8854 7.51044C15.0816 7.70658 15.3476 7.81678 15.625 7.81678C15.9024 7.81678 16.1684 7.70658 16.3646 7.51044L17.7083 6.15627V18.6563C17.7125 18.8697 17.6745 19.0818 17.5967 19.2806C17.5188 19.4793 17.4026 19.6608 17.2546 19.8146C17.1066 19.9684 16.9297 20.0915 16.7341 20.1769C16.5385 20.2624 16.328 20.3085 16.1146 20.3125H13.5417C13.2654 20.3125 13.0004 20.4223 12.8051 20.6176C12.6097 20.813 12.5 21.0779 12.5 21.3542C12.5 21.6305 12.6097 21.8954 12.8051 22.0908C13.0004 22.2861 13.2654 22.3959 13.5417 22.3959H16.1146C16.6016 22.3918 17.083 22.2918 17.5313 22.1016C17.9797 21.9115 18.3862 21.6349 18.7277 21.2876C19.0691 20.9404 19.3388 20.5293 19.5214 20.0778C19.7039 19.6263 19.7958 19.1433 19.7917 18.6563V6.15627L21.1354 7.51044C21.2323 7.60807 21.3475 7.68556 21.4744 7.73845C21.6013 7.79133 21.7375 7.81856 21.875 7.81856C22.0125 7.81856 22.1487 7.79133 22.2756 7.73845C22.4025 7.68556 22.5177 7.60807 22.6146 7.51044C22.7122 7.4136 22.7897 7.29839 22.8426 7.17145C22.8955 7.04452 22.9227 6.90836 22.9227 6.77085C22.9227 6.63334 22.8955 6.49719 22.8426 6.37025C22.7897 6.24331 22.7122 6.1281 22.6146 6.03127L19.4896 2.90627C19.3927 2.80863 19.2775 2.73114 19.1506 2.67826C19.0237 2.62537 18.8875 2.59814 18.75 2.59814C18.6125 2.59814 18.4763 2.62537 18.3494 2.67826C18.2225 2.73114 18.1073 2.80863 18.0104 2.90627L14.8854 6.03127Z" fill="black"/>
</g>
</svg>
