<svg width="147" height="180" viewBox="0 0 147 180" fill="none" xmlns="http://www.w3.org/2000/svg">
<path id="GF" d="M147 84.8895L145.476 85.9367L141.376 88.241L139.502 91.2954L138.398 94.2453L135.858 96.2354L133.423 98.7662L132.652 100.791L130.392 102.414L129.954 105.102L124.225 114.597L121.93 118.857L118.636 123.395L116.586 125.088L113.801 127.776L112.381 130.9V134.129L110.437 137.987L109.351 141.32L107.511 143.258L102.658 153.8L102.413 157.431L101.257 159.578L97.8049 164.605L95.4749 167.625L91.3928 169.894L87.1182 172.355L85.5062 175.043L82.4753 176.405L80.2682 176.492L76.7117 175.514L71.8939 175.043L69.4585 175.357L68.3545 174.031L66.7077 170.976L64.3077 168.794L62.7657 169.545L59.5247 171.727L55.7233 173.018L53.0249 172.582L47.1383 171.081L44.6334 170.313L43.8801 169.021L43.0038 168.061L41.7073 168.48L39.9729 170.103L37.6605 171.779L34.2264 174.013L27.1663 178.011L25.1864 179.442L23.3643 178.656L20.3687 177.87L17.18 177.836L10.2947 175.235L6.26554 173.385L4.51347 171.063L2.48125 170.068L1.29004 169.423L1.85036 168.986L3.63717 168.655L5.23152 168.619L7.71926 165.077L11.819 162.86L18.9668 150.589L21.9807 145.51L22.3485 142.735L23.1895 136.94L21.5952 129.888L22.3485 127.915L28.4799 119.415L31.1254 114.772L31.2831 110.775L32.0541 107.895L31.3008 106.394L29.8994 105.957L27.5518 102.222L26.0451 99.1326L21.8753 95.9558L19.0197 92.7091L14.342 85.2389L14.7623 81.0494L13.431 79.5483L11.9944 77.9951L12.0992 76.1099L11.1181 71.3974L9.92686 66.9985L9.47133 64.2057L10.6454 59.4234L9.9445 54.1169L8.4202 51.3241L7.99996 47.0477L8.31541 43.2428L9.61141 41.0786L9.34889 38.4078L15.2702 29.9073L19.7731 24.9854L23.9075 21.5294L27.394 18.946L32.1065 6.02969L35.5229 1.4913L39.0971 0.828125L58.4035 11.5274L67.4611 12.5225L85.6992 18.2998L92.3038 25.7008L107.599 38.0237L115.64 41.8989L115.71 45.128L113.958 50.2598L119.109 45.7736L127.063 52.8779L129.323 56.3514L131.793 62.7744L130.935 66.9112L129.831 69.0408L129.778 70.699L132.144 68.4122L133.475 66.6145L133.878 62.3035L135.805 56.9624L138.398 56.8575L140.466 60.0514L144.74 73.8935L146.352 76.7209L146.965 81.1192L146.737 83.0741L147 84.8895Z" fill="#1C110A" fill-opacity="0.91" stroke="white" stroke-width="0.5"/>
</svg>
