<svg width="32" height="33" viewBox="0 0 32 33" fill="none" xmlns="http://www.w3.org/2000/svg">
<path id="GP" d="M23.3163 15.0055L17.535 15.5637L13.7331 15.1274L12.8573 11.4967L14.8019 8.4248L13.4005 4.68968L14.294 2.47269L16.2385 1.00677L19.4272 2.96169L19.9351 5.7545L21.9326 8.30281L30.9201 13.7483L23.3163 15.0055ZM10.422 26.3333L6.44522 28.6025L4.50014 27.9042L2.08243 23.5405L0.383301 11.4269L1.69748 9.41983L2.64329 8.66929L7.88184 10.1528L10.0718 11.8632L12.2617 12.9456L11.1577 15.1626L11.7009 24.2564L10.422 26.3333ZM28.0816 32.2678L25.3485 32.4601L24.1396 32.0233L23.7718 28.9866L25.8917 26.8921L27.1358 26.3855L28.975 28.7421L29.4135 30.697L28.0816 32.2678Z" fill="#1C110A" fill-opacity="0.91" stroke="white" stroke-width="0.5"/>
</svg>
