<svg width="141" height="108" viewBox="0 0 141 108" fill="none" xmlns="http://www.w3.org/2000/svg">
<path id="HT" d="M89.9029 3.91456L91.8998 5.11894L91.1465 6.58486L86.1886 5.67718L81.0554 4.01897L79.3734 4.4206L78.3399 4.21126L75.3437 2.62283L77.9721 1.40087L80.6876 0.999237L83.6656 1.0866L89.9029 3.91456ZM133.404 20.444L134.49 21.9802L136.75 32.4004L136.978 35.7344L134.7 40.7612L135.033 42.7508L139.921 47.3941L140.009 49.0699L139.431 50.7627L135.261 55.1616L132.055 58.1637L133.071 61.6197L135.664 64.901L135.997 67.6416L135.208 71.2547L131.231 75.7404L129.147 77.3464L123.225 77.5381L122.559 78.1843L125.502 82.565L128.831 87.522L134.28 91.3621L135.489 94.9752L134.174 98.3966L133.947 106.845L129.777 102.743L125.205 99.3218L122.454 97.995L119.598 97.14L97.7864 97.5763L95.3339 98.1697L93.4418 99.2691L91.4095 99.8103L85.4177 100.84L79.4611 101.067L65.5328 98.3092L60.0141 96.8779L54.4606 95.9703L48.0832 96.267L41.7412 97.1049L36.6609 99.0949L32.8589 102.603L32.1404 105.867L29.898 106.705L24.7648 101.521L20.0347 97.8378L14.6561 95.0626L3.63631 91.1006L1.62173 88.6918L0.727783 85.777L5.17825 76.8052L10.2409 75.1645L13.027 74.8503L19.2814 75.9497L25.3957 77.992L30.9668 79.3183L39.6041 79.8419L44.299 82.0414L77.4636 85.4627L83.7533 86.5446L86.2063 86.1781L88.3433 84.8342L90.1306 82.4078L92.18 80.593L102.009 80.1914L104.076 79.3711L105.513 76.8398L105.477 74.2041L99.6962 70.6784L90.6562 62.9285L82.7021 53.8L86.1357 50.7105L84.8221 45.0727L86.1186 39.8536L88.0107 34.7394L80.1267 30.3581L70.8061 25.9769L57.8942 24.5983L53.9174 23.4983L51.8499 20.2171L53.7073 15.8182L57.8942 13.3749L62.6948 11.8738L67.6179 10.8265L79.4787 9.56997L91.2518 10.9837L101.431 15.5215L111.767 19.0825L124.819 20.2693L130.688 21.561L133.404 20.444ZM83 68.9504L82.1413 72.5811L69.5625 68.2696L59.3661 62.8241L59.8039 59.8741L65.0072 59.1934L70.0004 61.0087L77.3759 64.6394L83 68.9504Z" fill="#9B2915" stroke="white" stroke-width="0.5"/>
</svg>
