<svg width="106" height="43" viewBox="0 0 106 43" fill="none" xmlns="http://www.w3.org/2000/svg">
<path id="JM" d="M53.8491 4.40998L59.841 6.24292L66.043 7.20279L68.7056 7.25553L71.211 7.84893L76.8698 12.2648L81.425 14.6736L98.6816 20.0669L104.428 29.3706L105.514 32.2854L101.065 33.9958L95.4405 34.6068L90.0795 34.6941L85.1216 32.931L82.967 31.5694L77.7985 30.9063L79.095 29.6497L76.7997 29.0739L73.9265 29.1958L71.8066 32.7738L69.4589 35.6018L64.939 35.3227L63.2045 32.9139L60.8398 33.9958L58.9123 35.7765L56.6347 42.444L52.9381 39.1276L48.926 36.3699L43.8981 35.2177L33.7365 35.026L28.9364 34.1353L24.942 28.4975L23.3653 26.892L19.3532 25.4256L15.3588 18.9499L13.9222 18.0598L3.07751 16.6807L0.852539 13.1373L1.51818 9.92583L5.12711 5.99842L6.89681 4.8814L12.8887 5.05612L18.6175 3.86932L21.14 2.19353L23.7679 1.07651L44.5114 3.92152L49.2939 3.9391L53.8491 4.40998Z" fill="#1C110A" fill-opacity="0.91" stroke="white" stroke-width="0.5"/>
</svg>
