<svg width="84" height="27" viewBox="0 0 84 27" fill="none" xmlns="http://www.w3.org/2000/svg">
<path id="KY" d="M78.8911 3.77581L76.5961 4.56097L74.809 4.2467L78.8387 2.10002L79.8722 1.36706L80.7659 0.983002H81.6943L82.8681 1.41926V1.75059L78.8911 3.77581ZM71.2528 3.96758L70.7622 4.26428L69.1853 4.03736L65.5763 6.14941L64.017 6.02743L64.4902 5.29393L65.2435 4.59613L66.0845 4.08956L66.8729 3.88022L69.3956 3.46153L70.5869 3.4088L71.4102 3.88022L71.2528 3.96758ZM2.87387 22.5217L4.46795 23.5167L6.46542 22.9057L7.04338 21.8063L14.6293 22.609L15.7681 24.7563L9.98665 24.8085L7.39385 26.1875L6.09731 26.4667L1.13945 26.1348L0.421143 21.1607L1.8051 20.6366L2.87387 22.5217Z" fill="#1C110A" fill-opacity="0.91" stroke="white" stroke-width="0.5"/>
</svg>
