<svg width="28" height="28" viewBox="0 0 28 28" fill="none" xmlns="http://www.w3.org/2000/svg">
<path id="Vector" fill-rule="evenodd" clip-rule="evenodd" d="M7 0H10.5V3.5H17.5V7H15.5191C14.9988 9.92243 13.625 12.5495 11.6648 14.6145C13.0649 15.294 14.6254 15.6947 16.2741 15.7447L17.9786 10.5H22.2714L27.9589 28H24.2786L23.1411 24.5H17.1088L15.9713 28H12.2911L15.1581 19.1786C12.8212 18.9499 10.6429 18.1804 8.74998 16.9968C6.46618 18.4247 3.76696 19.25 0.875 19.25H0V15.75H0.875C2.65318 15.75 4.33606 15.342 5.83515 14.6145C4.69667 13.4152 3.75601 12.0263 3.06549 10.5H7.03813C7.5254 11.2611 8.10082 11.9603 8.74998 12.5833C10.303 11.0929 11.434 9.1661 11.9456 7H0V3.5H7V0ZM22.0036 21L20.125 15.2195L18.2464 21H22.0036Z" fill="#668744"/>
</svg>
