<svg width="23" height="30" viewBox="0 0 23 30" fill="none" xmlns="http://www.w3.org/2000/svg">
<path id="Vector" d="M11.25 0C5.03719 0 0 5.03719 0 11.25C0 13.6964 0.802031 15.9412 2.13516 17.7797C2.15906 17.8237 2.16281 17.873 2.19 17.9152L9.69 29.1652C10.0378 29.6869 10.6237 30 11.25 30C11.8763 30 12.4622 29.6869 12.81 29.1652L20.31 17.9152C20.3377 17.873 20.3409 17.8237 20.3648 17.7797C21.698 15.9412 22.5 13.6964 22.5 11.25C22.5 5.03719 17.4628 0 11.25 0ZM11.25 15C9.17906 15 7.5 13.3209 7.5 11.25C7.5 9.17906 9.17906 7.5 11.25 7.5C13.3209 7.5 15 9.17906 15 11.25C15 13.3209 13.3209 15 11.25 15Z" fill="#668744"/>
</svg>
