<svg width="131" height="31" viewBox="0 0 131 31" fill="none" xmlns="http://www.w3.org/2000/svg">
<path id="PR" d="M89.2015 5.05612L90.7081 6.0682L92.18 5.92864L90.9883 3.81658H92.0923L101.518 5.10832L107.58 7.29015L113.816 8.32034L114.202 15.4592L109.401 18.3218L106.266 21.2888L103.708 24.9371L96.9802 29.1783L88.886 30.4524L83.4903 30.5749L81.4752 30.4354L79.513 29.7019L75.4485 30.4002L70.4206 28.5327L66.1108 29.0041L57.5611 28.5673L54.3548 30.1733L51.2891 30.5398L48.2934 30.2431L45.7356 29.5101L39.3935 29.5623L36.7128 28.1486L37.8163 20.0323L37.904 16.3669L36.3449 13.3296L34.6282 11.4269L33.4017 9.17529L35.8894 7.69179L37.9393 5.52753L38.5873 2.26331L40.8296 1.46057L43.458 1.09409L55.5813 2.61221L86.2758 3.46768L88.0274 3.72976L89.2015 5.05612ZM123.803 22.441L119.948 22.7553L117.443 22.3361L116.602 20.8174L121.28 19.3861L126.728 19.596L129.847 20.4509L130.232 21.0273L123.803 22.441ZM3.49575 24.78L3.04022 24.8322L2.58469 24.78L2.37457 24.6404L2.05913 24.169L0.657262 23.4009L0.324707 22.6855L0.640153 21.952L1.21812 21.6553L4.05606 21.5855L4.3544 21.6553L4.91472 22.1789L4.93236 22.5454L4.6522 22.9124L4.14375 23.8025L3.93363 24.0294L3.7759 24.2564L3.70586 24.6575L3.49575 24.78Z" fill="#1C110A" fill-opacity="0.91" stroke="white" stroke-width="0.5"/>
</svg>
