<svg width="38" height="34" viewBox="0 0 38 34" fill="none" xmlns="http://www.w3.org/2000/svg">
<g id="Group 1">
<path id="Ellipse 1" d="M27.4441 13.6842C27.4441 20.9656 21.3052 26.8684 13.7325 26.8684C6.15986 26.8684 0.0209961 20.9656 0.0209961 13.6842C0.0209961 6.40276 6.15986 0.5 13.7325 0.5C21.3052 0.5 27.4441 6.40276 27.4441 13.6842ZM4.13446 13.6842C4.13446 18.7812 8.43166 22.9131 13.7325 22.9131C19.0334 22.9131 23.3306 18.7812 23.3306 13.6842C23.3306 8.58719 19.0334 4.45526 13.7325 4.45526C8.43166 4.45526 4.13446 8.58719 4.13446 13.6842Z" fill="black"/>
<line id="Line 1" x1="2" y1="-2" x2="18.2442" y2="-2" transform="matrix(0.778271 0.627929 -0.657507 0.753448 19.9824 20.9122)" stroke="black" stroke-width="4" stroke-linecap="round"/>
</g>
</svg>
