<svg width="201" height="204" viewBox="0 0 201 204" fill="none" xmlns="http://www.w3.org/2000/svg">
<path id="SR" d="M191.918 31.5293L187.783 34.9853L183.28 39.9072L177.359 48.4076L177.621 51.0784L176.325 53.2427L176.01 57.0476L176.43 61.3239L177.955 64.1167L178.655 69.4232L177.481 74.2056L177.937 76.9984L179.128 81.3972L180.109 86.1098L180.004 87.9949L181.441 89.5482L182.772 91.0493L182.352 95.2387L187.03 102.709L189.885 105.956L194.055 109.132L195.562 112.222L197.909 115.957L199.311 116.394L200.064 117.895L199.293 120.775L199.135 124.772L196.49 129.415L190.359 137.915L189.605 139.887L191.2 146.94L190.359 152.735L189.991 155.51L186.977 160.589L179.829 172.859L175.729 175.076L173.242 178.619L171.647 178.654L169.86 178.986L169.3 179.423L167.057 179.387L165.305 177.817L165.025 175.967L164.096 173.837L161.889 173.191L157.719 173.942L156.511 173.401L154.04 171.131L151.991 168.635L151.465 166.227L150.151 166.454L146.98 168.635L144.808 169.072L143.108 168.513L141.199 168.671L136.363 171.01L133.508 171.533L131.475 173.889L118.037 174.954L114.498 175.565L106.475 171.516L104.407 170.189L103.356 169.997L102.463 170.206L101.587 171.114L100.255 176.211L99.0464 177.59L96.9442 178.724L94.8943 180.749L94.4912 182.721L97.6446 183.821L100.273 187.644L103.129 190.716L105.423 193.404L105.108 196.476L104.723 200.822L103.058 202.306L100.273 203.021L90.0936 200.927L82.2802 199.041L79.0038 198.64L77.5148 198.151L75.5703 196.563L73.5904 195.097L70.4194 194.556L66.6351 193.561L63.8319 189.738L60.941 184.31L59.9252 181.849L57.6652 179.475L55.4576 176.089L54.7743 173.086L53.1099 170.346L52.2342 169.421L50.9376 165.685L50.6575 164.289L50.0266 164.115L49.1155 162.91L47.3287 158.913L46.9256 157.919L46.1375 157.569L44.0524 154.759L42.388 153.782L41.7747 152.333L41.9148 148.423L41.0214 146.486L40.7589 142.803L40.7059 141.336L39.8478 139.696L38.4289 138.631L38.1834 135.96L37.8327 129.398L37.15 128.245L31.1581 128.333L30.5625 128.978L27.9694 129.362L25.0785 129.432L22.4507 128.56L20.296 127.407L19.8229 125.976L20.1559 121.421L16.6695 117.965L11.1508 113.688L9.48637 108.26L7.45415 104.874L1.33984 97.787L0.253418 92.9344V89.496L2.39097 86.3543L5.38664 80.8038L6.63078 75.7764L7.54183 73.1583L9.08324 69.7199L10.4851 65.2689L9.41633 62.5283L7.59423 59.858L6.99862 57.8333L8.7678 54.9009L10.5375 52.8235L12.5521 52.5444L15.1099 51.2878L17.125 49.5076L20.1907 49.0362L24.0103 48.8439H31.8237L35.8181 48.0763L37.0623 46.645L36.8693 43.8868L38.8491 41.3907L40.9337 40.3435L41.7747 39.5231L41.8977 38.5984L41.3545 37.7605L40.5135 37.2017L38.3412 37.01L36.4314 32.6809L37.7456 30.7958L39.4271 27.3222L39.9002 25.3503L42.5109 22.2778L43.1413 23.2206L45.1564 17.6004L45.4013 13.0269L46.9432 8.52363L49.3085 3.1825L53.5655 0.529785L78.3558 3.23524L89.6734 5.78355L104.232 10.1818L106.3 14.8949L106.404 10.1818L105.686 5.43412L109.716 2.06549L118.546 0.878687L131.773 2.50175L143.143 0.512207L158.613 0.756705L182.089 4.59622L192.601 7.21485L196.928 9.58844L197.752 13.8477L197.349 19.3108L195.632 24.53L191.918 31.5293Z" fill="#1C110A" fill-opacity="0.91" stroke="white" stroke-width="0.5"/>
</svg>
