<svg width="36" height="12" viewBox="0 0 36 12" fill="none" xmlns="http://www.w3.org/2000/svg">
<path id="TC" d="M23.4484 6.88583L22.5903 7.44461L19.7342 5.62925L19.3316 4.18038L18.3152 4.1106L16.6161 2.80182L17.0187 1.10845L20.9083 1.03867L22.4673 5.73419L23.4484 6.88583ZM34.2057 10.8308L34.0127 11.5467L31.2271 9.5215L25.8838 9.50446L25.0428 6.72922L27.0926 6.27539L33.8726 7.25284L35.4145 9.6616L34.2057 10.8308ZM1.18111 6.32759L6.80515 9.2248L10.1863 8.78854L10.4665 9.4171L8.64436 10.0803L8.18883 10.6215L2.77545 11.372L1.07578 11.2325L0.725586 9.27754L1.18111 6.32759Z" fill="#1C110A" fill-opacity="0.91" stroke="white" stroke-width="0.5"/>
</svg>
