<svg width="70" height="64" viewBox="0 0 70 64" fill="none" xmlns="http://www.w3.org/2000/svg">
<path id="TT" d="M57.3927 8.22017L54.7124 8.70917L55.0279 6.73667L59.7232 3.33289L66.9058 1.02907L68.7279 0.941711L67.6944 3.99607L57.3927 8.22017ZM44.8138 59.9386L36.8427 62.7138L16.0644 63.377L7.46231 62.3644L0.857178 63.1501L12.8933 57.093L14.3123 54.5447L19.4279 54.0738L20.8821 53.3057L22.5813 39.918L21.9156 36.7236L20.8998 34.961L18.8323 33.6868L14.1893 31.9583L13.4189 31.0335L16.3445 29.55L22.5813 28.7292L27.2419 27.1237L36.8951 26.7919L41.5904 25.3606L49.4915 24.9595L45.6025 31.1209L43.7803 33.4071L44.4984 38.9406L43.605 42.6933L44.6385 47.441L47.0038 50.5651L45.4795 53.62L45.2517 58.2628L44.8138 59.9386Z" fill="#1C110A" fill-opacity="0.91" stroke="white" stroke-width="0.5"/>
</svg>
