<svg width="13" height="35" viewBox="0 0 13 35" fill="none" xmlns="http://www.w3.org/2000/svg">
<path id="VC" d="M9.82144 10.636L8.36718 11.4217L4.75826 8.07014L5.19614 4.16031L7.38609 2.01363L9.4536 0.757053L11.5735 0.617493L12.3092 3.84656L11.8013 8.402L9.82144 10.636ZM7.28076 18.8051L6.49268 19.3463H6.86052L6.49268 19.7128L6.24727 19.3463L5.86179 19.1194L5.37151 19.0145L4.79301 19.032V18.6656L5.52923 18.8925L6.63276 18.6656V18.2639L6.29967 17.8974L6.15959 17.6354L6.56272 17.2513L7.9293 16.3788L8.50726 15.925L8.5773 16.1167L8.59494 16.2914L8.66498 16.4662L8.8751 16.6409L8.1747 17.3211L7.28076 18.8051ZM1.95506 33.7637L1.46425 33.7813L1.02637 33.6065L1.14934 33.4494L1.70966 33.3274L1.97271 32.9956L1.88502 32.5593L1.90267 32.0703L2.34055 31.7736L2.69075 31.7566L2.84847 31.9483L2.93615 32.4022L2.6731 32.7511L2.3753 33.0307L2.23522 33.467L1.95506 33.7637Z" fill="#1C110A" fill-opacity="0.91" stroke="white" stroke-width="0.5"/>
</svg>
