<svg width="25" height="25" viewBox="0 0 25 25" fill="none" xmlns="http://www.w3.org/2000/svg">
<g id="Component 5">
<path id="Vector" d="M5.20836 6.34377V18.8438L3.86461 17.4896C3.66846 17.2935 3.40243 17.1833 3.12503 17.1833C2.84763 17.1833 2.5816 17.2935 2.38545 17.4896C2.1893 17.6858 2.0791 17.9518 2.0791 18.2292C2.0791 18.5066 2.1893 18.7726 2.38545 18.9688L5.51045 22.0938C5.60728 22.1914 5.72249 22.2689 5.84943 22.3218C5.97637 22.3747 6.11252 22.4019 6.25003 22.4019C6.38754 22.4019 6.52369 22.3747 6.65063 22.3218C6.77757 22.2689 6.89278 22.1914 6.98961 22.0938L10.1146 18.9688C10.2122 18.8719 10.2897 18.7567 10.3426 18.6298C10.3955 18.5028 10.4227 18.3667 10.4227 18.2292C10.4227 18.0917 10.3955 17.9555 10.3426 17.8286C10.2897 17.7016 10.2122 17.5864 10.1146 17.4896C10.0178 17.392 9.90257 17.3145 9.77563 17.2616C9.64869 17.2087 9.51254 17.1815 9.37503 17.1815C9.23752 17.1815 9.10137 17.2087 8.97443 17.2616C8.84749 17.3145 8.73228 17.392 8.63545 17.4896L7.2917 18.8438V6.34377C7.28755 6.13036 7.32549 5.91823 7.40335 5.71948C7.48121 5.52074 7.59746 5.33929 7.74546 5.18548C7.89346 5.03168 8.07032 4.90854 8.26592 4.82309C8.46152 4.73765 8.67204 4.69158 8.88545 4.68752H11.4584C11.7346 4.68752 11.9996 4.57777 12.1949 4.38242C12.3903 4.18707 12.5 3.92212 12.5 3.64585C12.5 3.36958 12.3903 3.10463 12.1949 2.90928C11.9996 2.71393 11.7346 2.60418 11.4584 2.60418H8.88545C8.39846 2.60827 7.91704 2.70824 7.46869 2.89839C7.02033 3.08853 6.61383 3.36513 6.27237 3.71239C5.93092 4.05965 5.66121 4.47076 5.47865 4.92225C5.29609 5.37375 5.20424 5.85678 5.20836 6.34377ZM14.8854 6.03127C14.6893 6.22742 14.5791 6.49345 14.5791 6.77085C14.5791 7.04825 14.6893 7.31429 14.8854 7.51044C15.0816 7.70658 15.3476 7.81678 15.625 7.81678C15.9024 7.81678 16.1685 7.70658 16.3646 7.51044L17.7084 6.15627V18.6563C17.7125 18.8697 17.6746 19.0818 17.5967 19.2806C17.5189 19.4793 17.4026 19.6608 17.2546 19.8146C17.1066 19.9684 16.9297 20.0915 16.7341 20.1769C16.5385 20.2624 16.328 20.3085 16.1146 20.3125H13.5417C13.2654 20.3125 13.0005 20.4223 12.8051 20.6176C12.6098 20.813 12.5 21.0779 12.5 21.3542C12.5 21.6305 12.6098 21.8954 12.8051 22.0908C13.0005 22.2861 13.2654 22.3959 13.5417 22.3959H16.1146C16.6016 22.3918 17.083 22.2918 17.5314 22.1016C17.9797 21.9115 18.3862 21.6349 18.7277 21.2876C19.0691 20.9404 19.3389 20.5293 19.5214 20.0778C19.704 19.6263 19.7958 19.1433 19.7917 18.6563V6.15627L21.1354 7.51044C21.2323 7.60807 21.3475 7.68556 21.4744 7.73845C21.6014 7.79133 21.7375 7.81856 21.875 7.81856C22.0125 7.81856 22.1487 7.79133 22.2756 7.73845C22.4026 7.68556 22.5178 7.60807 22.6146 7.51044C22.7122 7.4136 22.7897 7.29839 22.8426 7.17145C22.8955 7.04452 22.9227 6.90836 22.9227 6.77085C22.9227 6.63334 22.8955 6.49719 22.8426 6.37025C22.7897 6.24331 22.7122 6.1281 22.6146 6.03127L19.4896 2.90627C19.3928 2.80863 19.2776 2.73114 19.1506 2.67826C19.0237 2.62537 18.8875 2.59814 18.75 2.59814C18.6125 2.59814 18.4764 2.62537 18.3494 2.67826C18.2225 2.73114 18.1073 2.80863 18.0104 2.90627L14.8854 6.03127Z" fill="#F4F1D0"/>
</g>
</svg>
